<?xml version="1.0" encoding="UTF-8" standalone="no"?>
<svg
   xmlns:dc="http://purl.org/dc/elements/1.1/"
   xmlns:cc="http://creativecommons.org/ns#"
   xmlns:rdf="http://www.w3.org/1999/02/22-rdf-syntax-ns#"
   xmlns:svg="http://www.w3.org/2000/svg"
   xmlns="http://www.w3.org/2000/svg"
   xmlns:sodipodi="http://sodipodi.sourceforge.net/DTD/sodipodi-0.dtd"
   xmlns:inkscape="http://www.inkscape.org/namespaces/inkscape"
   width="32mm"
   height="32mm"
   viewBox="0 0 32 32"
   version="1.1"
   id="svg274"
   inkscape:version="1.0.1 (3bc2e813f5, 2020-09-07)"
   sodipodi:docname="navbar.svg">
  <defs
     id="defs268" />
  <sodipodi:namedview
     id="base"
     pagecolor="#ffffff"
     bordercolor="#666666"
     borderopacity="1.0"
     inkscape:pageopacity="0.0"
     inkscape:pageshadow="2"
     inkscape:zoom="5.6"
     inkscape:cx="85.415479"
     inkscape:cy="82.675118"
     inkscape:document-units="mm"
     inkscape:current-layer="g35"
     inkscape:document-rotation="0"
     showgrid="false"
     inkscape:window-width="1602"
     inkscape:window-height="1378"
     inkscape:window-x="1998"
     inkscape:window-y="78"
     inkscape:window-maximized="0" />
  <metadata
     id="metadata271">
    <rdf:RDF>
      <cc:Work
         rdf:about="">
        <dc:format>image/svg+xml</dc:format>
        <dc:type
           rdf:resource="http://purl.org/dc/dcmitype/StillImage" />
        <dc:title />
      </cc:Work>
    </rdf:RDF>
  </metadata>
  <g
     inkscape:label="Ebene 1"
     inkscape:groupmode="layer"
     id="layer1"
     style="display:inline">
    <g
       id="g35"
       style="display:inline;fill:#2b5d0a"
       transform="matrix(0.26458333,0,0,0.26458333,16.319122,12.075224)">
      <path
         fill="#CC0033"
         d="m -29.69501,-18.301896 c 4.485353,0 8.140226,-3.496048 8.140226,-7.811024 v -11.714699 c 0,-4.311303 -3.654873,-7.811024 -8.140226,-7.811024 -4.493007,0 -8.144054,3.499721 -8.144054,7.811024 v 11.714699 c 0,4.314976 3.651047,7.811024 8.144054,7.811024 z"
         id="path27"
         style="fill:#2b5d0a;stroke-width:3.74891" />
      <path
         fill="#CC0033"
         d="m 27.286576,-18.301896 c 4.493007,0 8.144054,-3.496048 8.144054,-7.811024 v -11.714699 c 0,-4.311303 -3.651047,-7.811024 -8.144054,-7.811024 -4.496834,0 -8.140227,3.499721 -8.140227,7.811024 v 11.714699 c 0,4.314976 3.64722,7.811024 8.140227,7.811024 z"
         id="path29"
         style="fill:#2b5d0a;stroke-width:3.74891" />
      <path
         id="path31"
         style="fill:#2b5d0a;stroke-width:3.74891"
         d="M 15.699219 11.714844 C 11.210039 11.714844 7.5585938 15.210181 7.5585938 19.521484 L 7.5585938 63.509766 L 7.5585938 109.35352 C 7.5585938 113.66115 11.210039 117.16602 15.699219 117.16602 L 37.189453 117.16602 L 75.589844 117.16602 A 41.574801 41.574801 0 0 1 44.1875 102.83398 L 44.1875 105.44727 L 19.771484 105.44727 L 19.771484 85.925781 L 35.322266 85.925781 A 41.574801 41.574801 0 0 1 34.521484 82.046875 L 19.771484 82.046875 L 19.771484 62.318359 L 36.191406 62.318359 A 41.574801 41.574801 0 0 1 37.648438 58.595703 L 19.771484 58.595703 L 19.771484 39.070312 L 44.1875 39.070312 L 44.1875 48.345703 A 41.574801 41.574801 0 0 1 48.263672 44.259766 L 48.263672 39.070312 L 55.722656 39.070312 A 41.574801 41.574801 0 0 1 75.589844 34.015625 A 41.574801 41.574801 0 0 1 95.457031 39.070312 L 101.17773 39.070312 L 101.17773 42.822266 A 41.574801 41.574801 0 0 1 113.38672 58.275391 L 113.38672 19.525391 C 113.38672 15.214088 109.7391 11.71875 105.24609 11.71875 L 101.17773 11.71875 L 101.17383 11.71875 L 101.17383 23.433594 C 101.17383 25.207325 100.53519 26.825935 99.498047 28.140625 C 98.009308 30.017181 95.677803 31.248047 93.037109 31.248047 L 84.896484 31.248047 C 80.403477 31.248047 76.755859 27.748803 76.755859 23.4375 L 76.755859 11.722656 L 76.753906 11.722656 L 44.195312 11.722656 L 44.191406 11.722656 L 44.191406 23.4375 C 44.191406 27.752475 40.541914 31.248047 36.052734 31.248047 L 27.912109 31.248047 C 25.271415 31.248047 22.93999 30.017181 21.455078 28.140625 C 20.414109 26.825935 19.771484 25.20709 19.771484 23.429688 L 19.771484 11.714844 L 19.767578 11.714844 L 15.699219 11.714844 z M 75.589844 117.16602 L 83.755859 117.16602 L 105.24609 117.16602 C 109.7391 117.16602 113.38672 113.66115 113.38672 109.35352 L 113.38672 92.910156 A 41.574801 41.574801 0 0 1 75.589844 117.16602 z "
         transform="translate(-61.678572,-45.638642)" />
      <g
         id="g77"
         transform="matrix(3.3786441,0,0,3.3786441,-33.975233,-17.931924)"
         style="display:inline;fill:#dd2a2b">
        <path
           fill="#330066"
           d="m 14.173,1.308 c -7.104,0 -12.864,5.761 -12.864,12.864 0,7.105 5.76,12.865 12.864,12.865 7.105,0 12.865,-5.76 12.865,-12.865 0,-7.103 -5.76,-12.864 -12.865,-12.864 z m 0,23.053 C 9,24.361 4.004,19.389 4.004,14.246 4.004,9.103 9,4.13 14.173,4.13 c 5.174,0 10.169,4.974 10.169,10.116 0,5.143 -4.996,10.115 -10.169,10.115 z"
           id="path65"
           style="fill:#dd2a2b" />
        <path
           fill="#330066"
           d="m 14.173,7.749 c 1.264,0 0.804,-2.409 0,-2.409 -0.803,0 -1.263,2.409 0,2.409 z"
           id="path67"
           style="fill:#dd2a2b" />
        <path
           fill="#330066"
           d="m 5.34,14.174 c 0,1.263 2.409,1.263 2.409,0 0,-1.262 -2.409,-1.262 -2.409,0 z"
           id="path69"
           style="fill:#dd2a2b" />
        <path
           fill="#330066"
           d="m 14.173,20.598 c -1.263,0 -1.146,2.408 0,2.408 1.147,0.001 1.263,-2.408 0,-2.408 z"
           id="path71"
           style="fill:#dd2a2b" />
        <path
           fill="#330066"
           d="M 17.853,7.747 C 17.265,7.476 16.571,7.729 16.299,8.313 l -2.495,5.403 -2.757,-0.009 c -0.644,-0.002 -1.166,0.52 -1.165,1.165 0.004,0.646 0.526,1.17 1.173,1.171 l 3.505,0.012 c 0.039,0 0.076,-0.009 0.112,-0.013 0.028,-0.003 0.059,-0.003 0.086,-0.009 0.056,-0.009 0.107,-0.023 0.159,-0.041 0.02,-0.006 0.036,-0.01 0.056,-0.017 0.053,-0.021 0.104,-0.046 0.153,-0.074 0.017,-0.008 0.031,-0.015 0.047,-0.025 0.049,-0.029 0.093,-0.063 0.136,-0.101 0.015,-0.012 0.029,-0.023 0.044,-0.036 0.042,-0.039 0.079,-0.082 0.113,-0.126 0.013,-0.015 0.025,-0.028 0.037,-0.044 0.035,-0.05 0.066,-0.104 0.094,-0.158 0.006,-0.012 0.015,-0.021 0.021,-0.034 l 0.01,-0.021 c 0.003,-0.007 0.006,-0.013 0.01,-0.02 l 2.79,-6.043 C 18.697,8.712 18.439,8.018 17.853,7.747 Z"
           id="path73"
           style="fill:#dd2a2b" />
        <path
           fill="#330066"
           d="m 20.597,14.174 c 0,1.263 2.408,1.263 2.408,0 0.001,-1.262 -2.408,-1.262 -2.408,0 z"
           id="path75"
           style="fill:#dd2a2b" />
      </g>
    </g>
  </g>
</svg>
