<?xml version="1.0" encoding="UTF-8" standalone="no"?>
<svg
   xmlns:dc="http://purl.org/dc/elements/1.1/"
   xmlns:cc="http://creativecommons.org/ns#"
   xmlns:rdf="http://www.w3.org/1999/02/22-rdf-syntax-ns#"
   xmlns:svg="http://www.w3.org/2000/svg"
   xmlns="http://www.w3.org/2000/svg"
   xmlns:sodipodi="http://sodipodi.sourceforge.net/DTD/sodipodi-0.dtd"
   xmlns:inkscape="http://www.inkscape.org/namespaces/inkscape"
   width="32mm"
   height="32mm"
   viewBox="0 0 32 32"
   version="1.1"
   id="svg274"
   inkscape:version="1.0.1 (3bc2e813f5, 2020-09-07)"
   sodipodi:docname="navbar.svg">
  <defs
     id="defs268" />
  <sodipodi:namedview
     id="base"
     pagecolor="#ffffff"
     bordercolor="#666666"
     borderopacity="1.0"
     inkscape:pageopacity="0.0"
     inkscape:pageshadow="2"
     inkscape:zoom="5.6"
     inkscape:cx="28.49845"
     inkscape:cy="68.389404"
     inkscape:document-units="mm"
     inkscape:current-layer="g35"
     inkscape:document-rotation="0"
     showgrid="false"
     inkscape:window-width="1758"
     inkscape:window-height="1080"
     inkscape:window-x="1998"
     inkscape:window-y="78"
     inkscape:window-maximized="0" />
  <metadata
     id="metadata271">
    <rdf:RDF>
      <cc:Work
         rdf:about="">
        <dc:format>image/svg+xml</dc:format>
        <dc:type
           rdf:resource="http://purl.org/dc/dcmitype/StillImage" />
        <dc:title></dc:title>
      </cc:Work>
    </rdf:RDF>
  </metadata>
  <g
     inkscape:label="Ebene 1"
     inkscape:groupmode="layer"
     id="layer1"
     style="display:inline">
    <g
       id="g35"
       style="display:inline;fill:#2b5d0a"
       transform="matrix(0.26458333,0,0,0.26458333,16.319122,12.075224)">
      <g
         id="g33"
         style="fill:#2b5d0a"
         transform="matrix(3.8270929,0,0,3.6723196,-62.439617,-45.6974)">
        <path
           fill="#CC0033"
           d="m 8.556,7.46 c 1.172,0 2.127,-0.952 2.127,-2.127 v -3.19 c 0,-1.174 -0.955,-2.127 -2.127,-2.127 -1.174,0 -2.128,0.953 -2.128,2.127 v 3.19 c 0,1.175 0.954,2.127 2.128,2.127 z"
           id="path27"
           style="fill:#2b5d0a" />
        <path
           fill="#CC0033"
           d="m 23.445,7.46 c 1.174,0 2.128,-0.952 2.128,-2.127 v -3.19 c 0,-1.174 -0.954,-2.127 -2.128,-2.127 -1.175,0 -2.127,0.953 -2.127,2.127 v 3.19 c 0,1.175 0.953,2.127 2.127,2.127 z"
           id="path29"
           style="fill:#2b5d0a" />
        <path
           fill="#CC0033"
           d="m 27.699,3.207 h -1.063 -10e-4 v 3.19 c 0,0.483 -0.167,0.924 -0.438,1.282 -0.389,0.511 -0.998,0.846 -1.688,0.846 h -2.127 c -1.174,0 -2.127,-0.953 -2.127,-2.127 v -3.19 h -10e-4 -8.507 -10e-4 v 3.19 c 0,1.175 -0.954,2.127 -2.127,2.127 H 7.492 C 6.802,8.525 6.193,8.19 5.805,7.679 5.533,7.321 5.365,6.88 5.365,6.396 V 3.206 H 5.364 4.301 c -1.173,0 -2.127,0.952 -2.127,2.126 V 17.31 29.794 c 0,1.173 0.954,2.127 2.127,2.127 h 5.615 12.168 5.615 c 1.174,0 2.127,-0.954 2.127,-2.127 V 17.311 5.333 c 0,-1.174 -0.953,-2.126 -2.127,-2.126 z M 11.745,28.73 h -6.38 v -5.316 h 6.38 z m 0,-6.372 h -6.38 v -5.372 h 6.38 z m 0,-6.386 h -6.38 v -5.317 h 6.38 z m 1.065,-5.317 h 6.38 v 5.317 h -6.38 z m 0,6.331 h 6.38 v 5.372 h -6.38 z m 6.381,8.573 c 0,-0.006 -10e-4,-0.012 -10e-4,-0.019 v 3.19 h -6.38 v -3.19 c 0,0.007 -0.001,0.013 -0.001,0.019 v -0.034 c 0,0.006 0.001,0.011 0.001,0.016 v -2.126 h 6.38 v 2.126 c 0,-0.005 10e-4,-0.01 10e-4,-0.015 z m 7.444,3.171 h -6.38 v -5.316 h 6.38 z m 10e-4,-6.372 h -6.38 V 22.35 h -0.001 v -5.317 h 0.001 v -0.047 h 6.38 z m 0,-6.386 h -6.38 v -5.317 h 6.38 z"
           id="path31"
           style="fill:#2b5d0a" />
      </g>
      <circle
         style="display:inline;fill:#ffffff;stroke-width:4.37631"
         id="path119"
         cx="13.911981"
         cy="29.95191"
         r="41.574802" />
      <g
         id="g77"
         transform="matrix(3.3786441,0,0,3.3786441,-33.975233,-17.931924)"
         style="display:inline;fill:#dd2a2b">
        <path
           fill="#330066"
           d="m 14.173,1.308 c -7.104,0 -12.864,5.761 -12.864,12.864 0,7.105 5.76,12.865 12.864,12.865 7.105,0 12.865,-5.76 12.865,-12.865 0,-7.103 -5.76,-12.864 -12.865,-12.864 z m 0,23.053 C 9,24.361 4.004,19.389 4.004,14.246 4.004,9.103 9,4.13 14.173,4.13 c 5.174,0 10.169,4.974 10.169,10.116 0,5.143 -4.996,10.115 -10.169,10.115 z"
           id="path65"
           style="fill:#dd2a2b" />
        <path
           fill="#330066"
           d="m 14.173,7.749 c 1.264,0 0.804,-2.409 0,-2.409 -0.803,0 -1.263,2.409 0,2.409 z"
           id="path67"
           style="fill:#dd2a2b" />
        <path
           fill="#330066"
           d="m 5.34,14.174 c 0,1.263 2.409,1.263 2.409,0 0,-1.262 -2.409,-1.262 -2.409,0 z"
           id="path69"
           style="fill:#dd2a2b" />
        <path
           fill="#330066"
           d="m 14.173,20.598 c -1.263,0 -1.146,2.408 0,2.408 1.147,0.001 1.263,-2.408 0,-2.408 z"
           id="path71"
           style="fill:#dd2a2b" />
        <path
           fill="#330066"
           d="M 17.853,7.747 C 17.265,7.476 16.571,7.729 16.299,8.313 l -2.495,5.403 -2.757,-0.009 c -0.644,-0.002 -1.166,0.52 -1.165,1.165 0.004,0.646 0.526,1.17 1.173,1.171 l 3.505,0.012 c 0.039,0 0.076,-0.009 0.112,-0.013 0.028,-0.003 0.059,-0.003 0.086,-0.009 0.056,-0.009 0.107,-0.023 0.159,-0.041 0.02,-0.006 0.036,-0.01 0.056,-0.017 0.053,-0.021 0.104,-0.046 0.153,-0.074 0.017,-0.008 0.031,-0.015 0.047,-0.025 0.049,-0.029 0.093,-0.063 0.136,-0.101 0.015,-0.012 0.029,-0.023 0.044,-0.036 0.042,-0.039 0.079,-0.082 0.113,-0.126 0.013,-0.015 0.025,-0.028 0.037,-0.044 0.035,-0.05 0.066,-0.104 0.094,-0.158 0.006,-0.012 0.015,-0.021 0.021,-0.034 l 0.01,-0.021 c 0.003,-0.007 0.006,-0.013 0.01,-0.02 l 2.79,-6.043 C 18.697,8.712 18.439,8.018 17.853,7.747 Z"
           id="path73"
           style="fill:#dd2a2b" />
        <path
           fill="#330066"
           d="m 20.597,14.174 c 0,1.263 2.408,1.263 2.408,0 0.001,-1.262 -2.408,-1.262 -2.408,0 z"
           id="path75"
           style="fill:#dd2a2b" />
      </g>
    </g>
  </g>
</svg>
