<?xml version="1.0" encoding="UTF-8" standalone="no"?>
<svg
   xmlns:dc="http://purl.org/dc/elements/1.1/"
   xmlns:cc="http://creativecommons.org/ns#"
   xmlns:rdf="http://www.w3.org/1999/02/22-rdf-syntax-ns#"
   xmlns:svg="http://www.w3.org/2000/svg"
   xmlns="http://www.w3.org/2000/svg"
   xmlns:sodipodi="http://sodipodi.sourceforge.net/DTD/sodipodi-0.dtd"
   xmlns:inkscape="http://www.inkscape.org/namespaces/inkscape"
   version="1.1"
   id="untissync_success"
   x="0px"
   y="0px"
   width="32px"
   height="32px"
   viewBox="0 0 32 32"
   enable-background="new 0 0 32 32"
   xml:space="preserve"
   sodipodi:docname="success.svg"
   inkscape:version="1.0.1 (3bc2e813f5, 2020-09-07)"><metadata
   id="metadata228"><rdf:RDF><cc:Work
       rdf:about=""><dc:format>image/svg+xml</dc:format><dc:type
         rdf:resource="http://purl.org/dc/dcmitype/StillImage" /></cc:Work></rdf:RDF></metadata><defs
   id="defs226" /><sodipodi:namedview
   pagecolor="#ffffff"
   bordercolor="#666666"
   borderopacity="1"
   objecttolerance="10"
   gridtolerance="10"
   guidetolerance="10"
   inkscape:pageopacity="0"
   inkscape:pageshadow="2"
   inkscape:window-width="1718"
   inkscape:window-height="1329"
   id="namedview224"
   showgrid="false"
   inkscape:zoom="31.5"
   inkscape:cx="16"
   inkscape:cy="16"
   inkscape:window-x="2649"
   inkscape:window-y="385"
   inkscape:window-maximized="0"
   inkscape:current-layer="untissync_success" />
<path
   fill-rule="evenodd"
   clip-rule="evenodd"
   fill="#FFFFFF"
   d="M6.943,28.453  c0.906,0.765,2.097,1.127,3.286,1.109c0.43,0.014,0.852-0.068,1.265-0.207c0.679-0.18,1.328-0.45,1.866-0.902L29.403,14.9  c1.772-1.498,1.772-3.925,0-5.422c-1.772-1.497-4.646-1.497-6.418,0L10.119,20.349l-2.389-2.424c-1.44-1.457-3.772-1.457-5.212,0  c-1.438,1.46-1.438,3.825,0,5.281C2.518,23.206,5.474,26.947,6.943,28.453z"
   id="path221"
   style="fill:#3a7c0e" />
</svg>
